<svg viewBox="0 0 603 182" xmlns="http://www.w3.org/2000/svg">
  <path d="M374.005 142.893c-34.945 25.797-85.584 39.557-129.159 39.557-61.07 0-116.092-22.605-157.665-60.191-3.268-2.955-.34-6.989 3.581-4.692 44.911 26.122 100.375 41.854 157.665 41.854 38.678 0 81.187-8.02 120.312-24.611 5.895-2.503 10.836 3.872 5.066 8.083z" fill="#FF9900"/>
  <path d="M388.557 125.531c-4.465-5.728-29.543-2.707-40.831-1.362-3.419.419-3.945-2.569-.863-4.717 19.99-14.058 52.771-10.001 56.58-5.29 3.809 4.724-.994 37.446-19.741 53.061-2.88 2.393-5.621 1.117-4.34-2.066 4.203-10.477 13.66-33.911 9.195-39.626z" fill="#FF9900"/>
  <path d="M348.499 20.069v-13.67c0-2.069 1.573-3.465 3.465-3.465h61.307c1.966 0 3.539 1.421 3.539 3.465v11.713c-.012 1.966-1.684 4.539-4.626 8.604l-31.739 45.323c11.799-.288 24.247 1.47 34.945 7.506 2.406 1.359 3.062 3.353 3.25 5.321v14.595c0 1.993-2.194 4.329-4.502 3.124-18.853-9.884-43.886-10.966-64.741.105-2.12 1.155-4.353-1.155-4.353-3.148v-13.862c0-2.22.025-6.014 2.256-9.392l36.767-52.717h-31.978c-1.966 0-3.539-1.396-3.539-3.452z" fill="#000"/>
  <path d="M126.356 102.164h-18.64c-1.783-.13-3.199-1.472-3.341-3.179V6.363c0-1.918 1.609-3.452 3.602-3.452h17.373c1.808.074 3.25 1.483 3.366 3.217v12.084h.351C134.363 5.955 143.953.549 156.185.549c12.409 0 20.161 5.406 25.716 17.663 5.205-12.257 17.038-17.663 29.758-17.663 9.036 0 18.926 3.731 24.947 12.108 6.646 9.301 5.303 22.806 5.303 34.661l-.012 51.441c0 1.918-1.609 3.453-3.602 3.453H219.68c-1.87-.13-3.366-1.622-3.366-3.453V57.942c0-4.663.426-16.296-.605-20.734-1.621-7.444-6.472-9.537-12.768-9.537-5.267 0-10.773 3.527-13.008 9.165-2.231 5.638-2.019 15.067-2.019 20.106v41.845c0 1.918-1.609 3.453-3.602 3.453h-18.641c-1.869-.13-3.365-1.622-3.365-3.453l-.012-40.841c0-12.357 2.031-30.542-13.295-30.542-15.501 0-14.896 17.701-14.896 30.542v40.841c0 1.918-1.609 3.453-3.602 3.453z" fill="#000"/>
  <path d="M469.525.549c27.663 0 42.631 23.754 42.631 53.957 0 29.183-16.547 52.34-42.631 52.34-27.166 0-41.966-23.754-41.966-53.361C427.559 23.904 442.534.549 469.525.549zm.154 19.53c-13.743 0-14.609 18.711-14.609 30.371s-.178 36.652 14.455 36.652c14.458 0 15.138-20.135 15.138-32.413 0-8.082-.351-17.737-2.779-25.409-2.106-6.683-6.297-9.201-12.205-9.201z" fill="#000"/>
  <path d="M548.004 102.164h-18.591c-1.87-.13-3.365-1.622-3.365-3.453l-.013-92.634c.155-1.746 1.685-3.099 3.602-3.099h17.311c1.622.074 2.953 1.181 3.328 2.668v14.187h.352c5.204-12.706 12.544-18.736 25.414-18.736 8.362 0 16.499 3.013 21.729 11.275 4.877 7.631 4.877 20.461 4.877 29.686v57.12c-.19 1.697-1.746 3.036-3.602 3.036h-18.714c-1.721-.13-3.124-1.421-3.329-3.036V55.919c0-10.413 1.205-25.656-11.613-25.656-4.514 0-8.669 3.025-10.736 7.631-2.618 5.824-2.955 11.636-2.955 18.025v42.867c-.025 1.918-1.659 3.453-3.64 3.453z" fill="#000"/>
  <path d="M292.932 59.427c0 7.259.178 13.311-3.478 19.758-2.967 5.243-7.681 8.47-12.908 8.47-7.156 0-11.348-5.453-11.348-13.509 0-15.889 14.246-18.766 27.734-18.766zm18.791 45.459c-1.231 1.105-3.012 1.181-4.402.439-6.185-5.144-7.305-7.532-10.697-12.433-10.238 10.438-17.494 13.565-30.751 13.565-15.701 0-27.912-9.685-27.912-29.067 0-15.142 8.207-25.459 19.893-30.493 10.125-4.452 24.258-5.243 35.08-6.472v-2.407c0-4.44.34-9.685-2.269-13.509-2.282-3.427-6.647-4.84-10.527-4.84-7.143 0-13.507 3.668-15.076 11.264-.315 1.684-1.559 3.353-3.252 3.44l-18.167-1.966c-1.534-.351-3.238-1.573-2.805-3.917C243.221 6.774 263.524 0 281.319 0c9.122 0 21.03 2.431 28.211 9.35 9.122 8.47 8.244 19.758 8.244 32.05v29.067c0 8.736 3.627 12.57 7.042 17.29 1.193 1.684 1.458 3.705-.063 4.954-3.806 3.179-10.585 9.072-14.316 12.383z" fill="#000"/>
</svg>